<?xml version="1.0" encoding="UTF-8" standalone="no"?>
<!-- Created with Inkscape (http://www.inkscape.org/) -->

<svg
   xmlns:dc="http://purl.org/dc/elements/1.1/"
   xmlns:cc="http://creativecommons.org/ns#"
   xmlns:rdf="http://www.w3.org/1999/02/22-rdf-syntax-ns#"
   xmlns:svg="http://www.w3.org/2000/svg"
   xmlns="http://www.w3.org/2000/svg"
   xmlns:sodipodi="http://sodipodi.sourceforge.net/DTD/sodipodi-0.dtd"
   xmlns:inkscape="http://www.inkscape.org/namespaces/inkscape"
   width="435.46213mm"
   height="451.19302mm"
   viewBox="0 0 435.46213 451.19302"
   version="1.1"
   id="svg8"
   inkscape:version="0.92.4 (5da689c313, 2019-01-14)"
   sodipodi:docname="loupe.svg">
  <defs
     id="defs2" />
  <sodipodi:namedview
     id="base"
     pagecolor="#ffffff"
     bordercolor="#666666"
     borderopacity="1.0"
     inkscape:pageopacity="0.0"
     inkscape:pageshadow="2"
     inkscape:zoom="0.35"
     inkscape:cx="392.92055"
     inkscape:cy="964.07679"
     inkscape:document-units="mm"
     inkscape:current-layer="layer1"
     showgrid="false"
     fit-margin-top="0"
     fit-margin-left="0"
     fit-margin-right="0"
     fit-margin-bottom="0"
     inkscape:window-width="1850"
     inkscape:window-height="1016"
     inkscape:window-x="70"
     inkscape:window-y="27"
     inkscape:window-maximized="1" />
  <metadata
     id="metadata5">
    <rdf:RDF>
      <cc:Work
         rdf:about="">
        <dc:format>image/svg+xml</dc:format>
        <dc:type
           rdf:resource="http://purl.org/dc/dcmitype/StillImage" />
        <dc:title></dc:title>
      </cc:Work>
    </rdf:RDF>
  </metadata>
  <g
     inkscape:label="Calque 1"
     inkscape:groupmode="layer"
     id="layer1"
     transform="translate(-7.5427472,165.2096)">
    <g
       id="g819"
       transform="matrix(0.03527778,0,0,-0.03527778,7.4010428,286.22491)"
       style="fill:#000000;stroke:none">
      <path
         id="path817"
         d="m 4165,12794 c -597,-44 -1068,-167 -1560,-409 -296,-146 -568,-322 -805,-524 -137,-116 -564,-517 -687,-645 C 578,10659 214,9946 71,9175 -6,8758 -17,8296 40,7870 205,6632 909,5522 1970,4827 c 214,-140 501,-290 735,-385 901,-365 1919,-405 2825,-111 335,109 659,264 951,454 l 96,63 799,-812 C 11014,342 11250,104 11301,73 c 91,-54 134,-66 244,-66 94,-1 105,2 175,35 78,36 87,43 351,289 176,163 197,186 228,247 74,145 63,324 -27,460 -16,23 -962,990 -2103,2149 C 9028,4345 7988,5403 7857,5536 l -239,243 69,78 c 383,436 681,997 839,1576 207,764 186,1598 -58,2357 -360,1120 -1161,2051 -2213,2570 -457,225 -903,356 -1425,416 -120,14 -561,26 -665,18 z m 122,-1234 c 655,-54 1242,-275 1757,-661 818,-615 1315,-1537 1364,-2529 38,-770 -178,-1487 -628,-2088 -138,-185 -228,-271 -403,-387 -426,-281 -904,-454 -1411,-510 -259,-29 -643,-16 -911,30 -1331,230 -2423,1277 -2720,2609 -59,268 -69,364 -69,711 0,282 3,337 22,462 90,573 298,1067 630,1491 127,163 173,210 287,291 601,430 1354,640 2082,581 z"
         inkscape:connector-curvature="0" />
    </g>
    <path
       style="opacity:1;fill:#ffffff;fill-opacity:1;stroke:#ffffff;stroke-width:32.39595032;stroke-linecap:round;stroke-linejoin:round;stroke-miterlimit:4;stroke-dasharray:none;stroke-opacity:1;paint-order:stroke fill markers"
       d="m 1521.245,1701.9176 c -4.0643,-1.2317 -10.5557,-4.3139 -14.4251,-6.8492 -3.8695,-2.5354 -147.0169,-146.7028 -318.1054,-320.3721 C 1017.626,1201.027 876.88584,1058.934 875.95864,1058.934 c -0.92718,0 -8.0972,4.2858 -15.93338,9.5241 -53.36594,35.6738 -126.95197,64.4303 -195.67614,76.4678 C 508.54249,1172.2166 347.02181,1130.0381 217.43163,1028.2206 188.85302,1005.7667 140.56495,956.20756 118.28982,926.46908 61.916016,851.20702 23.324198,761.92159 8.2104432,671.79111 4.1699143,647.69551 2.9995075,626.36319 3.194174,580.36253 3.4969229,508.82153 8.666148,474.86333 28.367093,414.99408 44.850919,364.90131 64.003213,325.46311 93.245225,281.39774 113.06076,251.53729 125.11713,237.68446 171.23147,191.79111 248.97226,114.42284 283.60155,87.963988 348.63484,56.244308 389.28489,36.417437 415.62935,26.706149 454.34912,17.275137 c 164.74249,-40.126474 337.8432,-2.353778 477.14286,104.118403 23.57346,18.01812 70.12842,63.35294 90.16542,87.80244 68.9335,84.11344 113.4603,185.90524 127.3279,291.08184 5.4805,41.56603 3.992,127.2906 -2.8447,163.8306 -17.9498,95.93586 -61.3895,189.5334 -117.8209,253.86346 l -15.4472,17.60934 192.2101,195.24778 c 393.0742,399.2864 429.229,436.5379 434.1916,447.3624 6.6252,14.4509 6.3378,33.4725 -0.7262,48.0648 -6.7366,13.9159 -59.4853,63.7139 -76.9,72.5982 -11.575,5.9051 -27.133,7.0847 -40.403,3.0632 z M 711.49198,980.90845 C 792.15715,960.36956 864.20595,921.03722 896.10289,880.12699 950.69058,810.11425 979.59855,736.44508 987.30338,647.71153 999.31932,509.32828 940.33861,366.62813 832.76966,273.82679 757.39869,208.80313 675.51444,174.22299 573.20538,164.21142 c -92.55512,-9.05709 -198.93863,19.61595 -276.82974,74.61259 -56.96553,40.2217 -108.81362,137.45884 -125.04081,234.5045 -6.59697,39.45271 -4.44956,124.19585 4.07066,160.64034 41.6757,178.2642 180.49543,315.37863 353.29775,348.95777 35.39297,6.8776 36.48065,6.94569 97.07445,6.07643 50.16209,-0.71963 60.63326,-1.70849 85.71429,-8.0946 z"
       id="path829"
       inkscape:connector-curvature="0"
       transform="matrix(0.26458333,0,0,0.26458333,7.5427472,-165.2096)" />
  </g>
</svg>
